# xmcd CD database file
#
# Track frame offsets:
#	150
#	15759
#	32032
#	49263
#	69282
#	92973
#	105850
#	124523
#	152407
#	166229
#
# Disc length: 2435 seconds
#
# Revision: 0
# Processed by: cddbd v1.5.1PL2 Copyright (c) Steve Scherf et al.
# Submitted via: CDex 1.51
#
DISCID=6609810a
DTITLE=Villeray - Jamais assez de soleil
DYEAR=2001
DGENRE=Québécois
TTITLE0=show time !
TTITLE1=jamais assez de soleil
TTITLE2=bon été, Sarah Murphy!
TTITLE3=le p'tit band
TTITLE4=mamie
TTITLE5=comme un oiseau
TTITLE6=déluge de lumière
TTITLE7=vague a l'âme
TTITLE8=au revoir
TTITLE9=tout au fond
EXTD=YEAR: 2001
EXTT0=
EXTT1=
EXTT2=
EXTT3=
EXTT4=
EXTT5=
EXTT6=
EXTT7=
EXTT8=
EXTT9=
PLAYORDER=
